<svg xmlns="http://www.w3.org/2000/svg" enable-background="new 0 0 512 512" viewBox="0 0 512 512" id="foosball">
  <path fill="#fff" d="M411,346v125c0,16.57-13.43,30-30,30H131c-16.57,0-30-13.43-30-30V346v-90v-90V41
			c0-16.57,13.43-30,30-30h250c16.57,0,30,13.43,30,30v125v90V346z"></path>
  <polygon fill="#fff" points="331 51 256 72.6 181 51 141 51 141 166 141 256 141 346 141 461 181 461 259.4 440.75 331 461 371 461 371 346 371 256 371 166 371 51"></polygon>
  <path fill="#9dcafc" d="M61 346v25H36c-6.9 0-13.16-2.8-17.68-7.32C13.8 359.16 11 352.9 11 346c0-13.81 11.19-25 25-25h25V346zM61 256v25H36c-6.9 0-13.16-2.8-17.68-7.32C13.8 269.16 11 262.9 11 256c0-13.81 11.19-25 25-25h25V256zM61 166v25H36c-6.9 0-13.16-2.8-17.68-7.32C13.8 179.16 11 172.9 11 166c0-13.81 11.19-25 25-25h25V166zM476 321c13.81 0 25 11.19 25 25 0 6.9-2.8 13.16-7.32 17.68C489.16 368.2 482.9 371 476 371h-25v-25-25H476zM476 231c13.81 0 25 11.19 25 25 0 6.9-2.8 13.16-7.32 17.68C489.16 278.2 482.9 281 476 281h-25v-25-25H476zM476 141c13.81 0 25 11.19 25 25 0 6.9-2.8 13.16-7.32 17.68C489.16 188.2 482.9 191 476 191h-25v-25-25H476zM331 441v20H181v-20c0-16.57 13.43-30 30-30h90C317.57 411 331 424.43 331 441zM331 51v20c0 16.57-13.43 30-30 30h-90c-16.57 0-30-13.43-30-30V51H331z"></path>
  <circle cx="201" cy="346" r="20" fill="#fff"></circle>
  <circle cx="311" cy="256" r="20" fill="#fff"></circle>
  <circle cx="201" cy="166" r="20" fill="#fff"></circle>
  <circle cx="311" cy="346" r="20" fill="#fff"></circle>
  <circle cx="201" cy="256" r="20" fill="#fff"></circle>
  <circle cx="311" cy="166" r="20" fill="#fff"></circle>
  <path fill="#4269a7" d="M371,41c-13.408,0-222.949,0-230,0c-5.523,0-10,4.477-10,10v410c0,5.523,4.477,10,10,10
				c13.408,0,222.949,0,230,0c5.522,0,10-4.477,10-10V51C381,45.477,376.522,41,371,41z M339.28,336
				c-4.128-11.639-15.243-20-28.28-20s-24.152,8.361-28.28,20h-53.44c-4.128-11.639-15.243-20-28.28-20s-24.152,8.361-28.28,20H151
				v-70h21.72c4.128,11.639,15.243,20,28.28,20s24.152-8.361,28.28-20h53.44c4.128,11.639,15.243,20,28.28,20s24.152-8.361,28.28-20
				H361v70H339.28z M321,346c0,5.514-4.486,10-10,10s-10-4.486-10-10s4.486-10,10-10S321,340.486,321,346z M211,346
				c0,5.514-4.486,10-10,10s-10-4.486-10-10s4.486-10,10-10S211,340.486,211,346z M172.72,176c4.128,11.639,15.243,20,28.28,20
				s24.152-8.361,28.28-20h53.44c4.128,11.639,15.243,20,28.28,20s24.152-8.361,28.28-20H361v70h-21.72
				c-4.128-11.639-15.243-20-28.28-20s-24.152,8.361-28.28,20h-53.44c-4.128-11.639-15.243-20-28.28-20s-24.152,8.361-28.28,20H151
				v-70H172.72z M191,166c0-5.514,4.486-10,10-10s10,4.486,10,10s-4.486,10-10,10S191,171.514,191,166z M301,166
				c0-5.514,4.486-10,10-10s10,4.486,10,10s-4.486,10-10,10S301,171.514,301,166z M321,256c0,5.514-4.486,10-10,10s-10-4.486-10-10
				s4.486-10,10-10S321,250.486,321,256z M211,256c0,5.514-4.486,10-10,10s-10-4.486-10-10s4.486-10,10-10S211,250.486,211,256z
				 M321,61v10c0,11.028-8.972,20-20,20h-90c-11.028,0-20-8.972-20-20V61H321z M171,61v10c0,22.056,17.944,40,40,40h90
				c22.056,0,40-17.944,40-40V61h20v95h-21.72c-4.128-11.639-15.243-20-28.28-20s-24.152,8.361-28.28,20h-53.44
				c-4.128-11.639-15.243-20-28.28-20s-24.152,8.361-28.28,20H151V61H171z M191,451v-10c0-11.028,8.972-20,20-20h90
				c11.028,0,20,8.972,20,20v10H191z M341,451v-10c0-22.056-17.944-40-40-40h-90c-22.056,0-40,17.944-40,40v10h-20v-95h21.72
				c4.128,11.639,15.243,20,28.28,20s24.152-8.361,28.28-20h53.44c4.128,11.639,15.243,20,28.28,20s24.152-8.361,28.28-20H361v95
				H341z"></path>
  <path fill="#4269a7" d="M451,291h25c19.299,0,35-15.701,35-35s-15.701-35-35-35h-25c-5.522,0-10,4.477-10,10v15h-20v-70
				h20v15c0,5.523,4.478,10,10,10h25c19.299,0,35-15.701,35-35s-15.701-35-35-35h-25c-5.522,0-10,4.477-10,10v15h-20V41
				c0-22.056-17.944-40-40-40H131c-22.056,0-40,17.944-40,40v115H71v-15c0-5.523-4.477-10-10-10H36c-19.299,0-35,15.701-35,35
				s15.701,35,35,35h25c5.523,0,10-4.477,10-10v-15h20v70H71v-15c0-5.523-4.477-10-10-10H36c-19.299,0-35,15.701-35,35
				s15.701,35,35,35h25c5.523,0,10-4.477,10-10v-15h20v70H71v-15c0-5.523-4.477-10-10-10H36c-19.299,0-35,15.701-35,35
				s15.701,35,35,35h25c5.523,0,10-4.477,10-10v-15h20v115c0,22.056,17.944,40,40,40h250c22.056,0,40-17.944,40-40V356h20v15
				c0,5.523,4.478,10,10,10h25c19.299,0,35-15.701,35-35s-15.701-35-35-35h-25c-5.522,0-10,4.477-10,10v15h-20v-70h20v15
				C441,286.523,445.478,291,451,291z M461,151h15c8.271,0,15,6.729,15,15s-6.729,15-15,15h-15V151z M51,181H36
				c-8.271,0-15-6.729-15-15s6.729-15,15-15h15V181z M51,271H36c-8.271,0-15-6.729-15-15s6.729-15,15-15h15V271z M51,361H36
				c-8.271,0-15-6.729-15-15s6.729-15,15-15h15V361z M461,331h15c8.271,0,15,6.729,15,15s-6.729,15-15,15h-15V331z M401,471
				c0,11.028-8.972,20-20,20H131c-11.028,0-20-8.972-20-20V41c0-11.028,8.972-20,20-20h250c11.028,0,20,8.972,20,20V471z M461,241
				h15c8.271,0,15,6.729,15,15s-6.729,15-15,15h-15V241z"></path>
</svg>
